<svg width="21" height="20" viewBox="0 0 21 20" fill="none" xmlns="http://www.w3.org/2000/svg">
<path d="M10.1472 0.568359C15.7141 0.568359 20.1962 4.20117 20.1962 8.71336C20.1962 10.9109 19.1125 12.844 17.4128 14.3674C14.6584 17.0918 9.91281 19.8462 9.415 19.6409C8.59469 19.3184 10.03 17.5605 9.44406 16.7993C9.35594 16.6821 9.03344 16.7112 8.4475 16.623C3.61375 15.978 0.15625 12.7849 0.15625 8.68336C0.15625 4.17117 4.60937 0.568359 10.1462 0.568359H10.1472ZM4.435 11.4077H6.13469C6.42812 11.4077 6.60344 11.1734 6.60344 10.8799C6.60344 10.6746 6.45719 10.4112 6.07562 10.4112H4.69844C4.58125 10.4112 4.58125 10.294 4.58125 9.88336V6.92461C4.58125 6.66117 4.405 6.3968 4.08344 6.3968C3.79 6.3968 3.58562 6.63117 3.58562 6.92461V10.4993C3.58562 11.2905 3.96625 11.4077 4.435 11.4077ZM8.27219 10.998V6.92555C8.27219 6.66211 8.06687 6.39773 7.74437 6.39773C7.48094 6.39773 7.24656 6.63211 7.24656 6.92555V10.998C7.24656 11.2615 7.45187 11.4668 7.77437 11.4668C8.03781 11.4668 8.27219 11.2615 8.27219 10.998ZM13.0769 10.4412V6.86648C13.0769 6.60305 12.8716 6.39773 12.5491 6.39773C12.3147 6.39773 12.0512 6.54398 12.0512 6.86648V9.44461L10.3516 7.0718C10.1172 6.66117 9.82375 6.39773 9.47219 6.39773C9.0325 6.39773 9.00344 6.7493 9.00344 7.24711V10.9971C9.00344 11.2605 9.20875 11.4659 9.50125 11.4659C9.76469 11.4659 9.99906 11.2896 9.99906 10.9971V8.33086L11.6987 10.7037C12.0794 11.2015 12.1675 11.4659 12.6362 11.4659C12.9587 11.4659 13.0759 11.1724 13.0759 10.4402L13.0769 10.4412ZM16.3581 8.41992H14.8637V7.57055C14.8637 7.48242 14.8928 7.36523 15.04 7.36523H16.3581C16.6806 7.36523 16.8859 7.18898 16.8859 6.86742C16.8859 6.4868 16.5925 6.36961 16.3291 6.36961H14.6294C14.1016 6.36961 13.8381 6.72117 13.8381 7.18992V10.5002C13.8381 11.0862 14.0725 11.4087 14.6294 11.4087H16.3581C16.7387 11.4087 16.8859 11.1743 16.8859 10.8809C16.8859 10.5002 16.5925 10.383 16.3581 10.383H15.0691C14.9519 10.383 14.8637 10.2949 14.8637 10.2068V9.38648H16.4162C16.7969 9.38648 16.8559 9.09305 16.8559 8.88867C16.8559 8.59523 16.6216 8.41992 16.3581 8.41992Z" fill="white"/>
</svg>
