<svg width="45" height="45" viewBox="0 0 45 45" fill="none" xmlns="http://www.w3.org/2000/svg">
<g clip-path="url(#clip0_429_106)">
<path d="M42.0968 5.80645V0H33.3871V5.80645H31.5835L27.5806 0.2025L23.5778 5.80645H0V40.6452H23.2258C23.2258 43.0469 25.179 45 27.5806 45C29.9823 45 31.9355 43.0469 31.9355 40.6452H33.3871V45H42.0968V40.6452H45V5.80645H42.0968ZM23.2258 24.6774H13.1233L17.7677 18.871H21.4113L23.2258 21.2901V24.6774ZM23.2258 18.871L22.1371 17.4194H17.071L11.2638 24.6774H5.80645V26.129H23.2258V27.5806H4.35484V15.9677H23.2258V18.871ZM23.2258 14.5161H2.90323V29.0323H23.2258V39.1935H1.45161V13.0645H23.2258V14.5161ZM23.2258 11.6129H1.45161V7.25806H23.2258V11.6129ZM27.5806 2.70073L29.7994 5.80645H25.3619L27.5806 2.70073ZM24.6774 7.25806H26.8548V34.8387H24.6774V7.25806ZM30.4839 40.6452C30.4839 42.2463 29.1818 43.5484 27.5806 43.5484C25.9795 43.5484 24.6774 42.2463 24.6774 40.6452V39.1935H30.4839V40.6452ZM30.4839 37.7419H24.6774V36.2903H30.4839V37.7419ZM30.4839 34.8387H28.3065V7.25806H30.4839V34.8387ZM33.3871 39.1935H31.9355V29.0323H33.3871V39.1935ZM33.3871 27.5806H31.9355V26.129H33.3871V27.5806ZM33.3871 24.6774H31.9355V15.9677H33.3871V24.6774ZM33.3871 14.5161H31.9355V13.0645H33.3871V14.5161ZM33.3871 11.6129H31.9355V7.25806H33.3871V11.6129ZM40.6452 4.35484H37.7419V5.80645H40.6452V8.70968H37.7419V10.1613H40.6452V13.0645H37.7419V14.5161H40.6452V17.4194H37.7419V18.871H40.6452V21.7742H37.7419V23.2258H40.6452V26.129H37.7419V27.5806H40.6452V30.4839H37.7419V31.9355H40.6452V34.8387H37.7419V36.2903H40.6452V39.1935H37.7419V40.6452H40.6452V43.5484H34.8387V1.45161H40.6452V4.35484ZM43.5484 39.1935H42.0968V7.25806H43.5484V39.1935Z" fill="#0840D1"/>
<path d="M4.35493 8.70972H2.90332V10.1613H4.35493V8.70972Z" fill="#0840D1"/>
<path d="M7.25801 8.70972H5.8064V10.1613H7.25801V8.70972Z" fill="#0840D1"/>
<path d="M10.1613 8.70972H8.70972V10.1613H10.1613V8.70972Z" fill="#0840D1"/>
<path d="M13.0646 30.4839H2.90332V37.742H13.0646V30.4839ZM11.613 36.2903H4.35493V31.9355H11.613V36.2903Z" fill="#0840D1"/>
<path d="M21.7742 30.4839H14.5161V31.9355H21.7742V30.4839Z" fill="#0840D1"/>
<path d="M21.7742 33.3871H14.5161V34.8387H21.7742V33.3871Z" fill="#0840D1"/>
<path d="M21.7742 36.2903H14.5161V37.7419H21.7742V36.2903Z" fill="#0840D1"/>
</g>
<defs>
<clipPath id="clip0_429_106">
<rect width="45" height="45" fill="white"/>
</clipPath>
</defs>
</svg>
