<svg width="45" height="45" viewBox="0 0 45 45" fill="none" xmlns="http://www.w3.org/2000/svg">
<g clip-path="url(#clip0_428_75)">
<path fill-rule="evenodd" clip-rule="evenodd" d="M25.9592 23.313L31.7347 26.6474C32.2985 26.973 32.4809 27.7126 32.1635 28.2624C31.8364 28.8288 31.1307 29.0335 30.5505 28.6986L24.6771 25.3076C24.0758 25.7746 23.3204 26.0526 22.5 26.0526C20.5379 26.0526 18.9474 24.4621 18.9474 22.5C18.9474 20.9532 19.936 19.6372 21.3158 19.1495V8.29757C21.3158 7.63907 21.8651 7.10526 22.5 7.10526C23.154 7.10526 23.6842 7.65686 23.6842 8.29757V19.1495C25.064 19.6372 26.0526 20.9532 26.0526 22.5C26.0526 22.7797 26.0203 23.0519 25.9592 23.313ZM22.5 45C34.9264 45 45 34.9264 45 22.5C45 10.0736 34.9264 0 22.5 0C10.0736 0 0 10.0736 0 22.5C0 34.9264 10.0736 45 22.5 45ZM22.5 42.6316C33.6184 42.6316 42.6316 33.6184 42.6316 22.5C42.6316 11.3816 33.6184 2.36842 22.5 2.36842C11.3816 2.36842 2.36842 11.3816 2.36842 22.5C2.36842 33.6184 11.3816 42.6316 22.5 42.6316Z" fill="#0840D1"/>
</g>
<defs>
<clipPath id="clip0_428_75">
<rect width="45" height="45" fill="white"/>
</clipPath>
</defs>
</svg>
