<svg width="47" height="47" viewBox="0 0 47 47" fill="none" xmlns="http://www.w3.org/2000/svg">
<g clip-path="url(#clip0_425_19)">
<path d="M14.705 20.1189L20.8246 25.5195L21.7969 24.418L15.6766 19.0174C15.0671 18.4798 14.7168 17.7043 14.7168 16.8906H13.248C13.248 18.1258 13.7797 19.3023 14.705 20.1189Z" fill="#0840D1"/>
<path d="M12.7619 22.3221L23.53 31.8234L34.2769 22.3088C35.8198 20.9422 36.7091 18.977 36.7179 16.92L36.7187 16.8238C36.7275 14.8821 35.9784 13.0557 34.6088 11.6802C34.3496 11.4203 34.0705 11.1897 33.7812 10.9752V8.24262L31.6566 7.69992C31.6419 7.66394 31.6273 7.62795 31.6118 7.5927L32.7303 5.70756L28.8087 1.78453L26.9236 2.90298C26.8876 2.88756 26.8516 2.87287 26.8164 2.85819L26.2729 0.734375H20.7262L20.1835 2.85892C20.1475 2.87361 20.1115 2.8883 20.0763 2.90372L18.1911 1.78453L14.2688 5.70683L15.3873 7.59197C15.3719 7.62795 15.3572 7.66394 15.3425 7.69919L13.2187 8.24262V11.0017C11.4569 12.3243 10.3105 14.4239 10.3105 16.7908V16.8906C10.3105 18.9682 11.2043 20.9473 12.7619 22.3221ZM14.6874 9.38238L16.4551 8.93147L16.5865 8.56134C16.6702 8.32194 16.7679 8.08841 16.8766 7.86148L17.0455 7.50825L16.1143 5.93889L18.4232 3.63002L19.9925 4.5612L20.3458 4.3923C20.5734 4.28434 20.8062 4.18667 21.0456 4.10222L21.4158 3.97077L21.8667 2.20312H25.1324L25.5833 3.97077L25.9535 4.10222C26.1929 4.18594 26.4264 4.28361 26.6533 4.3923L27.0066 4.5612L28.5759 3.63002L30.8848 5.93889L29.9536 7.50825L30.1225 7.86148C30.2305 8.08914 30.3281 8.32194 30.4126 8.56134L30.544 8.93147L32.3124 9.38238V10.1241C31.4268 9.74736 30.4669 9.54688 29.4748 9.54688C29.3786 9.54688 29.2831 9.55495 29.1877 9.55936C28.5326 6.99786 26.2032 5.14062 23.4999 5.14062C20.7989 5.14062 18.468 6.99786 17.8129 9.55789C17.7263 9.55495 17.6411 9.54688 17.5544 9.54688C16.5358 9.54688 15.5672 9.76058 14.6874 10.141V9.38238ZM22.0407 11.1001C22.0385 11.0714 22.0312 11.0443 22.0312 11.0156C22.0312 10.2056 22.6899 9.54688 23.4999 9.54688C24.3099 9.54688 24.9687 10.2056 24.9687 11.0156C24.9687 11.0538 24.9584 11.0913 24.9555 11.1295L23.5109 12.2787L22.1053 11.1478C22.084 11.1309 22.0613 11.1162 22.0407 11.1001ZM26.3302 10.2724C25.999 9.01372 24.8615 8.07812 23.4999 8.07812C22.1443 8.07812 21.0119 9.00564 20.6748 10.2563C20.2297 10.0448 19.7649 9.87808 19.2853 9.76058C19.8317 7.92538 21.5318 6.60938 23.4999 6.60938C25.4717 6.60938 27.1725 7.92831 27.7174 9.76645C27.2386 9.88689 26.7752 10.0587 26.3302 10.2724ZM11.7793 16.7908C11.7793 13.6065 14.3702 11.0156 17.5632 11.0156C18.8763 11.0156 20.1622 11.4687 21.1844 12.292L23.5051 14.1588L25.88 12.2707C26.8971 11.4614 28.1735 11.0156 29.4748 11.0156C31.0221 11.0156 32.4762 11.6193 33.5682 12.7164C34.6595 13.8129 35.2573 15.2699 35.2499 16.8142L35.2492 16.9119C35.2418 18.5532 34.5324 20.1197 33.3031 21.2095L23.5286 29.8634L13.7335 21.2205C12.4916 20.1248 11.7793 18.5466 11.7793 16.8906V16.7908Z" fill="#0840D1"/>
<path d="M43.9736 24.9688C43.37 24.9688 42.7795 25.2133 42.3529 25.64L37.8835 30.1094H35.3983L36.3339 28.706C36.5851 28.3278 36.7188 27.8886 36.7188 27.434V27.2607C36.7188 25.9969 35.6906 24.9688 34.4268 24.9688C33.8231 24.9688 33.2327 25.2133 32.806 25.64L25.7406 32.7054C24.7697 33.6762 24.2344 34.9673 24.2344 36.3405V40.3906H22.7656V36.3405C22.7656 34.9673 22.2303 33.6762 21.2594 32.7054L14.194 25.64C13.7673 25.2133 13.1769 24.9688 12.5732 24.9688C11.3094 24.9688 10.2812 25.9969 10.2812 27.2607V27.434C10.2812 27.8879 10.4149 28.3278 10.6661 28.7053L11.6017 30.1094H9.11653L4.64713 25.64C4.22045 25.2133 3.63002 24.9688 3.02636 24.9688C1.7625 24.9688 0.734375 25.9969 0.734375 27.2607V27.434C0.734375 27.8879 0.868031 28.3278 1.11919 28.7053L5.42409 35.1633C6.38025 36.5976 7.97972 37.4531 9.70183 37.4531H13.9531C14.3585 37.4531 14.6875 37.7821 14.6875 38.1875V40.3906H13.2188V46.2656H22.7656H24.2344H33.7812V40.3906H32.3125V38.1875C32.3125 37.7821 32.6415 37.4531 33.0469 37.4531H37.2982C39.0203 37.4531 40.619 36.5976 41.5752 35.1641L45.8801 28.706C46.132 28.3278 46.2656 27.8886 46.2656 27.434V27.2607C46.2656 25.9969 45.2375 24.9688 43.9736 24.9688ZM13.9531 35.9844H9.70183C8.47175 35.9844 7.3298 35.3734 6.64683 34.3489L2.34192 27.8908C2.25086 27.7557 2.20312 27.5971 2.20312 27.434V27.2607C2.20312 26.8069 2.57252 26.4375 3.02636 26.4375C3.243 26.4375 3.45523 26.5249 3.60872 26.6784L8.50847 31.5781H12.5813L13.3421 32.7201L14.5641 31.9057L11.8881 27.8916C11.7977 27.7557 11.75 27.5971 11.75 27.434V27.2607C11.75 26.8069 12.1194 26.4375 12.5732 26.4375C12.7899 26.4375 13.0021 26.5249 13.1556 26.6784L20.221 33.7438C20.9143 34.437 21.2969 35.3594 21.2969 36.3405V40.3906H16.1562V38.1875C16.1562 36.9728 15.1678 35.9844 13.9531 35.9844ZM22.7656 44.7969H14.6875V41.8594H22.7656V44.7969ZM32.3125 44.7969H24.2344V41.8594H32.3125V44.7969ZM44.7969 27.434C44.7969 27.5971 44.7491 27.7557 44.6588 27.8908L40.3539 34.3489C39.6709 35.3734 38.5283 35.9844 37.2982 35.9844H33.0469C31.8322 35.9844 30.8438 36.9728 30.8438 38.1875V40.3906H25.7031V36.3405C25.7031 35.3594 26.0857 34.437 26.779 33.7438L33.8444 26.6784C33.9979 26.5249 34.2101 26.4375 34.4268 26.4375C34.8806 26.4375 35.25 26.8069 35.25 27.2607V27.434C35.25 27.5971 35.2023 27.7557 35.1119 27.8908L32.4359 31.9049L33.6579 32.7193L34.4187 31.5781H38.4915L43.3913 26.6784C43.5448 26.5249 43.757 26.4375 43.9736 26.4375C44.4275 26.4375 44.7969 26.8069 44.7969 27.2607V27.434Z" fill="#0840D1"/>
</g>
<defs>
<clipPath id="clip0_425_19">
<rect width="47" height="47" fill="white"/>
</clipPath>
</defs>
</svg>
