<svg width="49" height="49" viewBox="0 0 49 49" fill="none" xmlns="http://www.w3.org/2000/svg">
<path d="M30.9314 15.7489C30.8804 15.596 30.7829 15.4628 30.6525 15.3681C30.522 15.2733 30.3652 15.2218 30.204 15.2206H26.3989L25.2275 11.6069C25.1771 11.4537 25.0797 11.3203 24.9491 11.2258C24.8185 11.1312 24.6614 11.0803 24.5001 11.0803C24.3389 11.0803 24.1818 11.1312 24.0512 11.2258C23.9206 11.3203 23.8231 11.4537 23.7728 11.6069L22.6014 15.2206H18.7962C18.635 15.2218 18.4782 15.2733 18.3478 15.3681C18.2174 15.4628 18.1198 15.596 18.0689 15.7489C18.018 15.9033 18.0181 16.07 18.0691 16.2244C18.1201 16.3788 18.2193 16.5127 18.3522 16.6064L21.4223 18.842L20.2509 22.4558C20.2003 22.6095 20.1998 22.7753 20.2493 22.9294C20.2988 23.0834 20.3959 23.2178 20.5265 23.3133C20.6587 23.4067 20.8165 23.4568 20.9783 23.4568C21.1401 23.4568 21.2979 23.4067 21.43 23.3133L24.5001 21.0777L27.5703 23.3133C27.7035 23.4046 27.8605 23.4552 28.022 23.4588C28.1839 23.4575 28.3415 23.4067 28.4737 23.3133C28.6044 23.2178 28.7015 23.0834 28.751 22.9294C28.8005 22.7753 28.7999 22.6095 28.7494 22.4558L27.5779 18.842L30.6481 16.6064C30.781 16.5127 30.8802 16.3788 30.9312 16.2244C30.9822 16.07 30.9823 15.9033 30.9314 15.7489ZM26.2304 17.9309C26.099 18.0259 26.0008 18.1598 25.9499 18.3138C25.8991 18.4678 25.8981 18.6339 25.9472 18.7884L26.5673 20.6872L24.9519 19.5081C24.8202 19.4135 24.6622 19.3627 24.5001 19.3627C24.338 19.3627 24.18 19.4135 24.0484 19.5081L22.4329 20.6872L23.0531 18.7884C23.1022 18.6339 23.1012 18.4678 23.0503 18.3138C22.9995 18.1598 22.9013 18.0259 22.7698 17.9309L21.1544 16.7519H23.1526C23.3143 16.7528 23.4721 16.7021 23.603 16.6071C23.7338 16.512 23.8309 16.3777 23.88 16.2236L24.5001 14.3248L25.1203 16.2236C25.1694 16.3777 25.2665 16.512 25.3973 16.6071C25.5281 16.7021 25.6859 16.7528 25.8476 16.7519H27.8459L26.2304 17.9309Z" fill="#0840D1"/>
<path d="M24.5 7.85535C21.8862 7.85462 19.3732 8.86364 17.4857 10.6717C15.5981 12.4798 14.482 14.9471 14.3703 17.5585C14.2587 20.1699 15.1601 22.7235 16.8865 24.6861C18.6128 26.6486 21.0305 27.8684 23.6349 28.0908C23.9258 28.1138 24.2091 28.1291 24.5 28.1291C24.7603 28.1291 25.0283 28.1138 25.2886 28.0908H25.3652V28.0832C27.9685 27.8608 30.3853 26.6414 32.1109 24.6796C33.8366 22.7177 34.7377 20.1651 34.626 17.5547C34.5144 14.9442 33.3986 12.4779 31.5118 10.6705C29.6249 8.86317 27.1128 7.85458 24.5 7.85535ZM32.0108 22.1878C32.0088 22.1878 32.0068 22.1887 32.0054 22.1901C32.0039 22.1915 32.0031 22.1935 32.0031 22.1955C31.3183 23.4229 30.342 24.4629 29.1604 25.224C27.9788 25.985 26.6281 26.4437 25.2274 26.5596L25.2197 26.5672H25.212C24.7333 26.6144 24.2509 26.6118 23.7727 26.5596C21.9219 26.4019 20.172 25.6494 18.7844 24.4146C17.3968 23.1798 16.4461 21.5291 16.0744 19.7092C15.7028 17.8894 15.9302 15.9981 16.7226 14.3181C17.515 12.6382 18.8298 11.2599 20.4706 10.3892C22.1113 9.5185 23.9898 9.20224 25.8251 9.4877C27.6605 9.77316 29.3542 10.645 30.653 11.9729C31.9518 13.3007 32.7859 15.0133 33.0306 16.8546C33.2754 18.6958 32.9176 20.5668 32.0108 22.1878Z" fill="#0840D1"/>
<path d="M45.08 40.3714L42.2013 35.9078C40.1418 32.7305 38.0848 29.548 36.0304 26.3605C36.1911 26.2992 36.3749 26.2303 36.5586 26.1691C36.9736 26.0859 37.3679 25.9214 37.7188 25.6848C38.0697 25.4482 38.3702 25.1444 38.6028 24.7909C38.7329 24.3912 38.783 23.9698 38.7502 23.5507C38.7173 23.1316 38.6022 22.7232 38.4114 22.3486C38.2315 21.9567 38.135 21.5318 38.1282 21.1006C38.3178 20.7321 38.581 20.4064 38.9014 20.1436C39.2423 19.8855 39.5287 19.5625 39.7442 19.1933C39.9597 18.8241 40.1 18.4159 40.1571 17.9922C40.1008 17.5693 39.9608 17.1619 39.7452 16.7938C39.5296 16.4257 39.2428 16.1043 38.9014 15.8484C38.5821 15.5814 38.3193 15.2535 38.1282 14.8837C38.135 14.4526 38.2315 14.0276 38.4114 13.6358C38.6021 13.2625 38.7171 12.8553 38.75 12.4375C38.7828 12.0197 38.7328 11.5995 38.6028 11.2011C38.3695 10.8482 38.0688 10.5448 37.7181 10.3083C37.3673 10.0718 36.9733 9.90691 36.5586 9.82296C36.1463 9.71865 35.7586 9.53392 35.4178 9.27937C35.2484 8.88975 35.1549 8.47139 35.1422 8.04671C35.1538 7.62476 35.0819 7.20469 34.9308 6.81055C34.7797 6.41641 34.5524 6.05596 34.2618 5.74984C33.53 5.31903 32.6575 5.19518 31.8347 5.4053C31.418 5.49132 30.9881 5.49132 30.5714 5.4053C30.2507 5.13666 29.9877 4.80591 29.7982 4.43296C29.6241 4.04226 29.374 3.69009 29.0624 3.39697C28.7509 3.10385 28.3842 2.87564 27.9836 2.72562C27.5688 2.68995 27.1511 2.73652 26.7543 2.86265C26.3575 2.98878 25.9895 3.19198 25.6714 3.46062C25.3237 3.72567 24.9249 3.91595 24.5 4.01952C24.0752 3.91595 23.6764 3.72567 23.3286 3.46062C23.0117 3.19257 22.645 2.98968 22.2496 2.86356C21.8541 2.73744 21.4377 2.69056 21.0241 2.72562C20.6219 2.87432 20.2534 3.10198 19.9405 3.39519C19.6276 3.6884 19.3764 4.04125 19.2019 4.43296C19.0121 4.80359 18.752 5.13382 18.4363 5.4053C18.017 5.49119 17.5846 5.49119 17.1653 5.4053C16.3451 5.19508 15.4749 5.319 14.746 5.74984C14.4521 6.05559 14.2222 6.41689 14.0697 6.81261C13.9172 7.20832 13.8452 7.63048 13.8578 8.05437C13.85 8.47801 13.7535 8.89531 13.5746 9.27937C13.2408 9.53435 12.8574 9.71688 12.4491 9.8153C11.6097 9.98503 10.8718 10.4806 10.3972 11.1934C10.2671 11.5931 10.2171 12.0146 10.2499 12.4336C10.2828 12.8527 10.3979 13.2612 10.5886 13.6358C10.7686 14.0276 10.8651 14.4526 10.8719 14.8837C10.6808 15.2535 10.4179 15.5814 10.0986 15.8484C9.75731 16.1043 9.47046 16.4257 9.25486 16.7938C9.03927 17.1619 8.89925 17.5693 8.843 17.9922C8.90009 18.4159 9.04042 18.8241 9.25592 19.1933C9.47141 19.5625 9.75781 19.8855 10.0986 20.1436C10.4191 20.4064 10.6823 20.7321 10.8719 21.1006C10.8651 21.5318 10.7686 21.9567 10.5886 22.3486C10.398 22.7218 10.283 23.129 10.2501 23.5468C10.2173 23.9647 10.2673 24.3848 10.3972 24.7833C10.6287 25.1378 10.9288 25.4424 11.2799 25.6791C11.631 25.9158 12.026 26.0798 12.4414 26.1614C12.6175 26.2303 12.8013 26.2916 12.9697 26.3605C10.9102 29.5455 8.85321 32.7279 6.79878 35.9078L3.92003 40.3714C3.837 40.4965 3.79334 40.6435 3.79471 40.7937C3.79607 40.9438 3.84239 41.0901 3.92769 41.2136C4.01087 41.3371 4.12852 41.4334 4.266 41.4906C4.40349 41.5478 4.55475 41.5633 4.70097 41.5351L9.93019 40.5628L11.2011 45.7384C11.238 45.883 11.3164 46.0137 11.4266 46.1144C11.5368 46.215 11.6739 46.2813 11.8213 46.305C11.8616 46.3139 11.9026 46.319 11.9438 46.3203C12.0721 46.3212 12.1985 46.2893 12.311 46.2276C12.4236 46.166 12.5185 46.0767 12.5869 45.9681L20.8403 33.1898C20.9016 33.2051 20.9552 33.2434 21.0164 33.2587C21.1419 33.2887 21.2703 33.3041 21.3993 33.3047C22.1021 33.2272 22.7698 32.9569 23.3286 32.5237C23.6764 32.2587 24.0752 32.0684 24.5 31.9648C24.9249 32.0684 25.3237 32.2587 25.6714 32.5237C25.9897 32.7945 26.3589 32.999 26.7572 33.1252C27.1556 33.2514 27.5752 33.2968 27.9913 33.2587C28.0525 33.2434 28.1061 33.2051 28.1597 33.1898L36.4132 45.9681C36.4815 46.0767 36.5765 46.166 36.689 46.2276C36.8016 46.2893 36.928 46.3212 37.0563 46.3203C37.0975 46.319 37.1385 46.3139 37.1788 46.305C37.3261 46.2813 37.4633 46.215 37.5735 46.1144C37.6837 46.0137 37.762 45.883 37.7989 45.7384L39.0699 40.5628L44.2991 41.5351C44.4453 41.5624 44.5963 41.5466 44.7336 41.4895C44.8709 41.4324 44.9886 41.3365 45.0724 41.2136C45.1577 41.0901 45.204 40.9438 45.2054 40.7937C45.2067 40.6435 45.1631 40.4965 45.08 40.3714ZM12.2653 43.6406L11.2471 39.4986C11.2013 39.3086 11.0846 39.1433 10.9209 39.0365C10.7572 38.9297 10.5589 38.8896 10.3666 38.9244L6.17097 39.7053L8.08503 36.7423C9.9991 33.7717 11.9183 30.8011 13.8425 27.8305C13.8509 27.8657 13.856 27.9015 13.8578 27.9376C13.8463 28.3596 13.9182 28.7797 14.0692 29.1738C14.2203 29.5679 14.4477 29.9284 14.7383 30.2345C15.4702 30.6649 16.3426 30.7888 17.1653 30.5791C17.582 30.493 18.0119 30.493 18.4286 30.5791C18.7511 30.8459 19.0145 31.1771 19.2019 31.5514C19.3474 31.7734 19.4928 31.9955 19.646 32.2098L12.2653 43.6406ZM27.8688 31.6126C27.8069 31.6829 27.7277 31.7357 27.6391 31.7658C27.4247 31.8117 26.8582 31.4672 26.4907 31.2298C25.915 30.7828 25.2252 30.5069 24.5 30.4336C23.7749 30.5069 23.0851 30.7828 22.5094 31.2298C22.1419 31.4672 21.5753 31.8194 21.3686 31.7734C21.2748 31.7375 21.1908 31.6798 21.1236 31.605C20.8865 31.3397 20.6786 31.0496 20.5035 30.7398C20.1867 30.1079 19.7019 29.5755 19.1024 29.2009C18.7543 29.0425 18.3744 28.9665 17.9922 28.9789C17.6593 28.9854 17.3269 29.0109 16.9969 29.0555C16.5222 29.1091 15.8791 29.1856 15.6953 29.0401C15.5116 28.8947 15.435 28.2439 15.3814 27.7692C15.3721 27.0523 15.1626 26.3522 14.7766 25.748C14.7157 25.6715 14.6463 25.6022 14.5699 25.5412C14.5407 25.5165 14.51 25.4934 14.478 25.4723L14.4703 25.4647H14.4627C14.005 25.1299 13.4918 24.8785 12.9468 24.722C12.495 24.5612 11.8825 24.3469 11.7753 24.1172C11.6682 23.9028 11.8825 23.298 12.0357 22.8539C12.3423 22.2028 12.4566 21.4776 12.3649 20.7637C12.14 20.0932 11.7283 19.5008 11.1782 19.0564C10.8413 18.7195 10.3743 18.2525 10.3743 17.9922C10.3743 17.7319 10.8413 17.2648 11.1782 16.928C11.7283 16.4835 12.14 15.8912 12.3649 15.2206C12.4566 14.5068 12.3423 13.7816 12.0357 13.1305C11.8825 12.6864 11.6682 12.0816 11.7753 11.8595C11.8825 11.6375 12.5027 11.4231 12.9544 11.2623C13.6446 11.1001 14.2741 10.7441 14.7689 10.2364C15.1607 9.63721 15.3732 8.93863 15.3814 8.2228C15.435 7.74812 15.5039 7.10499 15.6953 6.95187C15.8868 6.79874 16.5222 6.8753 16.9969 6.9289C17.6985 7.07836 18.428 7.02796 19.1024 6.78343C19.7037 6.41107 20.189 5.87805 20.5035 5.24452C20.7561 4.83108 21.1083 4.27218 21.361 4.21859C21.5753 4.16499 22.1419 4.52484 22.5094 4.75452C23.0851 5.20152 23.7749 5.47746 24.5 5.55077C25.2252 5.47746 25.915 5.20152 26.4907 4.75452C26.8582 4.52484 27.4171 4.17265 27.6391 4.21859C27.8918 4.27218 28.2439 4.83108 28.4966 5.24452C28.8111 5.87805 29.2964 6.41107 29.8977 6.78343C30.5721 7.02796 31.3016 7.07836 32.0032 6.9289C32.4778 6.8753 33.121 6.79874 33.3047 6.94421C33.4885 7.08968 33.565 7.74046 33.6186 8.21515C33.628 8.9321 33.8375 9.63217 34.2235 10.2364C34.7257 10.7441 35.3593 11.102 36.0533 11.27C36.505 11.4231 37.1175 11.6375 37.2247 11.8672C37.3319 12.0816 37.1175 12.6864 36.9644 13.1305C36.6577 13.7816 36.5435 14.5068 36.6352 15.2206C36.86 15.8912 37.2718 16.4835 37.8219 16.928C38.1588 17.2648 38.6258 17.7319 38.6258 17.9922C38.6258 18.2525 38.1588 18.7195 37.8219 19.0564C37.2718 19.5008 36.86 20.0932 36.6352 20.7637C36.5435 21.4776 36.6577 22.2028 36.9644 22.8539C37.1175 23.298 37.3319 23.9028 37.2247 24.1248C37.1175 24.3469 36.4974 24.5689 36.0533 24.722C35.48 24.8787 34.942 25.1438 34.4685 25.503C34.3836 25.5788 34.3043 25.6607 34.2311 25.748C33.8394 26.3471 33.6269 27.0457 33.6186 27.7616C33.565 28.2362 33.4961 28.8794 33.3047 29.0325C33.1133 29.1856 32.4778 29.1091 32.0032 29.0555C31.3018 28.9022 30.5713 28.9526 29.8977 29.2009C29.2982 29.5755 28.8134 30.1079 28.4966 30.7398C28.3196 31.0527 28.1091 31.3454 27.8688 31.6126ZM38.6335 38.9244C38.4412 38.8896 38.2428 38.9297 38.0791 39.0365C37.9154 39.1433 37.7988 39.3086 37.753 39.4986L36.7347 43.6406L29.3541 32.2098C29.5072 31.9955 29.6527 31.7734 29.7982 31.5514C29.9858 31.1794 30.2461 30.8487 30.5638 30.5791C30.9831 30.4932 31.4154 30.4932 31.8347 30.5791C32.655 30.7893 33.5251 30.6654 34.2541 30.2345C34.5473 29.9299 34.7768 29.5698 34.9293 29.1755C35.0818 28.7811 35.1542 28.3603 35.1422 27.9376C35.1436 27.9015 35.1487 27.8656 35.1575 27.8305C37.0793 30.8011 38.9984 33.7717 40.915 36.7423L42.8291 39.7053L38.6335 38.9244Z" fill="#0840D1"/>
</svg>
