<svg width="46" height="46" viewBox="0 0 46 46" fill="none" xmlns="http://www.w3.org/2000/svg">
<g clip-path="url(#clip0_427_34)">
<path d="M0.930495 23.6176H4.231V15.1292C4.231 15.0902 4.2348 15.0522 4.23685 15.0139V8.47716C4.23685 8.03267 4.59713 7.67239 5.04162 7.67239H13.5746L20.9517 0.295244C21.1027 0.144364 21.3074 0.0595703 21.5208 0.0595703C21.7342 0.0595703 21.9389 0.144338 22.0899 0.295244L27.6525 5.85784L30.2675 3.24277C30.5818 2.92851 31.0913 2.92851 31.4057 3.24277L35.8405 7.67755C35.8698 7.67431 35.8996 7.67239 35.9297 7.67239H45.0697C45.5142 7.67239 45.8745 8.03267 45.8745 8.47716V17.0423C45.8745 17.0686 45.8731 17.0945 45.8706 17.1201V43.7561C45.8706 44.9606 44.8906 45.9405 43.6862 45.9405H6.41541C5.21092 45.9405 4.231 44.9606 4.231 43.7561V35.2678H0.930495C0.485982 35.2678 0.125726 34.9075 0.125726 34.463V24.4224C0.125726 23.9779 0.486008 23.6176 0.930495 23.6176ZM5.84641 9.28196V13.0226C6.02816 12.9734 6.21838 12.9448 6.41543 12.9448H8.3024L11.9652 9.28196H5.84641ZM21.5208 2.00246L10.5786 12.9448H13.0212L22.7421 3.22378L21.5208 2.00246ZM23.8803 4.36203L15.2977 12.9448H20.5654L26.5143 6.99596L23.8803 4.36203ZM30.8366 4.94998L28.7906 6.99594L27.6525 8.13405L22.8418 12.9448H25.0354L31.9334 6.04678L30.8366 4.94998ZM27.3119 12.9448H38.8313L33.0716 7.18502L27.3119 12.9448ZM41.1077 12.9448H43.6862C43.8868 12.9448 44.0803 12.9742 44.2649 13.025V9.28196H37.4449L41.1077 12.9448ZM5.84056 43.7561C5.84056 44.0731 6.09847 44.3309 6.41541 44.3309H43.6862C44.0031 44.3309 44.261 44.0731 44.261 43.7561V15.1292C44.261 14.8122 44.0031 14.5543 43.6862 14.5543H6.41541C6.1182 14.5543 5.87583 14.7819 5.84639 15.0713V17.0423C5.84639 17.0739 5.84401 17.105 5.84053 17.1356V23.6176H13.1554C16.3673 23.6176 18.9805 26.2307 18.9805 29.4426C18.9805 32.6546 16.3673 35.2678 13.1554 35.2678H5.84053L5.84056 43.7561ZM1.73526 33.6583H4.231H5.84053H13.1554C15.4798 33.6583 17.3709 31.7671 17.3709 29.4426C17.3709 27.1182 15.4798 25.2272 13.1554 25.2272H5.84053H4.231H1.73526V33.6583Z" fill="#0840D1"/>
<path d="M13.1172 26.6833C14.6386 26.6833 15.8765 27.9212 15.8765 29.4426C15.8765 30.964 14.6386 32.2018 13.1172 32.2018C11.5958 32.2018 10.358 30.964 10.358 29.4426C10.358 27.9212 11.5958 26.6833 13.1172 26.6833ZM13.1172 30.5923C13.7511 30.5923 14.2669 30.0765 14.2669 29.4426C14.2669 28.8087 13.7511 28.2929 13.1172 28.2929C12.4834 28.2929 11.9675 28.8087 11.9675 29.4426C11.9675 30.0765 12.4834 30.5923 13.1172 30.5923Z" fill="#0840D1"/>
</g>
<defs>
<clipPath id="clip0_427_34">
<rect width="46" height="46" fill="white" transform="matrix(-1 0 0 1 46 0)"/>
</clipPath>
</defs>
</svg>
