<svg width="46" height="46" viewBox="0 0 46 46" fill="none" xmlns="http://www.w3.org/2000/svg">
<path d="M23.3206 11.0572C26.0978 11.0572 28.3492 8.80583 28.3492 6.0286C28.3492 3.25138 26.0978 1 23.3206 1C20.5434 1 18.292 3.25138 18.292 6.0286C18.292 8.80583 20.5434 11.0572 23.3206 11.0572Z" stroke="#0840D1" stroke-width="2"/>
<path d="M39.8321 28.4845C42.6093 28.4845 44.8607 26.2331 44.8607 23.4558C44.8607 20.6786 42.6093 18.4272 39.8321 18.4272C37.0548 18.4272 34.8035 20.6786 34.8035 23.4558C34.8035 26.2331 37.0548 28.4845 39.8321 28.4845Z" stroke="#0840D1" stroke-width="2"/>
<path d="M23.3206 44.8751C26.0978 44.8751 28.3492 42.6237 28.3492 39.8465C28.3492 37.0693 26.0978 34.8179 23.3206 34.8179C20.5434 34.8179 18.292 37.0693 18.292 39.8465C18.292 42.6237 20.5434 44.8751 23.3206 44.8751Z" stroke="#0840D1" stroke-width="2"/>
<path d="M6.5933 37.4964C9.37052 37.4964 11.6219 35.245 11.6219 32.4678C11.6219 29.6906 9.37052 27.4392 6.5933 27.4392C3.81608 27.4392 1.5647 29.6906 1.5647 32.4678C1.5647 35.245 3.81608 37.4964 6.5933 37.4964Z" stroke="#0840D1" stroke-width="2"/>
<path d="M6.5933 17.8311C9.37052 17.8311 11.6219 15.5798 11.6219 12.8025C11.6219 10.0253 9.37052 7.77393 6.5933 7.77393C3.81608 7.77393 1.5647 10.0253 1.5647 12.8025C1.5647 15.5798 3.81608 17.8311 6.5933 17.8311Z" stroke="#0840D1" stroke-width="2"/>
<path d="M23.3121 25.5036C25.5549 25.5036 27.373 23.6855 27.373 21.4427C27.373 19.2 25.5549 17.3818 23.3121 17.3818C21.0693 17.3818 19.2512 19.2 19.2512 21.4427C19.2512 23.6855 21.0693 25.5036 23.3121 25.5036Z" stroke="#0840D1" stroke-width="2"/>
<path d="M10.9219 10.2365L18.4648 7.32471" stroke="#0840D1" stroke-width="2"/>
<path d="M26.8457 9.62305L36.2463 19.9308" stroke="#0840D1" stroke-width="2"/>
<path d="M36.7561 27.4304L26.9062 36.3212" stroke="#0840D1" stroke-width="2"/>
<path d="M9.35815 17.0017L20.2016 35.9065" stroke="#0840D1" stroke-width="2"/>
<path d="M11.043 34.8091L18.2921 38.1701" stroke="#0840D1" stroke-width="2"/>
<path d="M8.47681 27.8019L20.599 10.2537" stroke="#0840D1" stroke-width="2"/>
<path d="M11.2244 14.7725L19.7091 19.5678" stroke="#0840D1" stroke-width="2"/>
<path d="M27.3816 21.9006L34.8035 22.4622" stroke="#0840D1" stroke-width="2"/>
<path d="M23.312 25.5125L23.3207 34.8093" stroke="#0840D1" stroke-width="2"/>
</svg>
